<?xml version="1.0" encoding="UTF-8"?>
<svg id="Layer_2" data-name="Layer 2" xmlns="http://www.w3.org/2000/svg" xmlns:xlink="http://www.w3.org/1999/xlink" viewBox="0 0 348 347.61">
  <defs>
    <style>
      .cls-1 {
        fill: url(#linear-gradient);
      }

      .cls-2 {
        stroke: #fff;
        stroke-linejoin: round;
        stroke-width: 5px;
      }

      .cls-2, .cls-3 {
        fill: none;
      }

      .cls-4 {
        fill: url(#linear-gradient-3);
      }

      .cls-5 {
        fill: url(#linear-gradient-4);
      }

      .cls-6 {
        fill: url(#linear-gradient-2);
      }

      .cls-3 {
        stroke: #373737;
        stroke-miterlimit: 10;
      }

      .cls-7 {
        fill: url(#radial-gradient);
      }
    </style>
    <linearGradient id="linear-gradient" x1="174" y1="162.74" x2="347.81" y2="162.74" gradientUnits="userSpaceOnUse">
      <stop offset=".2" stop-color="#98adb3"/>
      <stop offset=".9" stop-color="#c1dbe3"/>
    </linearGradient>
    <linearGradient id="linear-gradient-2" x1=".19" y1="162.74" x2="174" y2="162.74" gradientUnits="userSpaceOnUse">
      <stop offset=".2" stop-color="#c1dbe3"/>
      <stop offset=".39" stop-color="#bad4db"/>
      <stop offset=".67" stop-color="#a9c0c7"/>
      <stop offset=".9" stop-color="#98adb3"/>
    </linearGradient>
    <radialGradient id="radial-gradient" cx="175.26" cy="367.06" fx="35.91" fy="408.93" r="145.5" gradientUnits="userSpaceOnUse">
      <stop offset=".18" stop-color="#373737"/>
      <stop offset=".29" stop-color="#3c3d3e"/>
      <stop offset=".45" stop-color="#4b5052"/>
      <stop offset=".63" stop-color="#646f73"/>
      <stop offset=".84" stop-color="#8799a0"/>
      <stop offset=".93" stop-color="#97adb5"/>
    </radialGradient>
    <linearGradient id="linear-gradient-3" x1="20.55" y1="160.86" x2="158.44" y2="139.85" gradientUnits="userSpaceOnUse">
      <stop offset="0" stop-color="#373737"/>
      <stop offset=".21" stop-color="#3c3d3e"/>
      <stop offset=".51" stop-color="#4b5052"/>
      <stop offset=".87" stop-color="#636e72"/>
      <stop offset="1" stop-color="#6d7b80"/>
    </linearGradient>
    <linearGradient id="linear-gradient-4" x1="315.04" y1="151.37" x2="194.07" y2="151.37" gradientUnits="userSpaceOnUse">
      <stop offset=".08" stop-color="#373737"/>
      <stop offset=".27" stop-color="#3c3d3e"/>
      <stop offset=".55" stop-color="#4b5052"/>
      <stop offset=".88" stop-color="#636e72"/>
      <stop offset="1" stop-color="#6d7b80"/>
    </linearGradient>
  </defs>
  <g id="Layer_2-2" data-name="Layer 2">
    <polygon class="cls-1" points="174 0 174 253 347.81 325.48 347.81 0 174 0"/>
    <polygon class="cls-6" points="174 0 .19 0 .19 325.48 174 253 174 0"/>
    <polygon class="cls-7" points=".19 325.48 .19 347.61 347.81 347.61 347.81 325.48 174 253 .19 325.48"/>
    <path class="cls-4" d="M81.3,49.43c28.75-6.47,64.51,3.26,73.76,52.1l-17.18,5.8s-7.78-48.44-50.92-34.62c-40.76,13.06-42.8,73.22-40.89,96.1,0,0,2.73,54.49,35.34,62.43s61.36-26.6,61.36-26.6l-1.07-41.28-36.04,8.67-1.29-21.46,52.99-9.01,1.07,66.3s-23.17,36.04-59.65,43.34-68.44-6.44-77.67-67.58S32.06,60.51,81.3,49.43Z"/>
    <path class="cls-5" d="M329.06,123.91l-24.53,1.36s-2.18-57.5-51.23-54.5-48.78,86.93-40.06,115.28,23.73,41.02,43.9,45.11,35.14,.13,43.31-32.84l24.77,5.87s-7.84,65.21-72.04,46.26-62.94-93.52-61.67-117.03,7.34-57.69,31.09-73.81,66.46-14.09,83.92,6.07,20.08,33.08,22.55,58.24Z"/>
    <polyline class="cls-3" points="347.81 325.48 174 253 174 0"/>
    <line class="cls-3" x1="174" y1="253" x2=".19" y2="325.48"/>
    <g id="ViewLayer_LineSet" data-name="ViewLayer LineSet">
      <g id="strokes">
        <path class="cls-2" d="M268.52,72.66l-2.32-1.9-2.33-1.9-.5-.41-2.45-1.72-2.38-1.67-2.56-1.54-2.56-1.54-.23-.14-2.66-1.36-2.66-1.36-.21-.11-2.73-1.21-2.26-1-2.77-1.1-.05-.02-2.8-1.01-2.02-.73-2.83-.9-1.2-.38-2.86-.83-.12-.04-2.87-.76-.38-.1-2.89-.69-.33-.08-2.9-.62-.37-.08-2.92-.56-.4-.08-2.93-.5-.12-.02-2.97-.05-2.97-.05-2.97-.05-2.97-.05-2.97-.05-2.97-.05-2.97-.05-2.97-.05-2.97-.05-2.97-.05-2.97-.05-2.97-.05-2.45-.04-2.97,.05-2.97,.05-2.97,.05-2.97,.05-2.97,.05-2.97,.05-2.97,.05-2.97,.05-2.97,.05-2.97,.05-1.96,.04-2.93,.51-.77,.14-2.91,.59-1.44,.29-2.9,.67-2.04,.47-2.88,.75-1.78,.47-2.85,.84-1.69,.5-2.83,.92-1.6,.52-2.8,1.01-1.5,.54-2.77,1.09-1.4,.55-2.73,1.18-1.31,.57-2.69,1.29-2.69,1.29-.4,.19-2.63,1.41-1.02,.54-2.59,1.5-.96,.56-2.52,1.61-2.52,1.61-.42,.27-2.45,1.73-.89,.63"/>
        <path class="cls-2" d="M278.73,120.36l-.9-2.91-.63-2.01-1.06-2.85-.66-1.77-1.23-2.78-.83-1.88-1.42-2.68-1.41-2.68-.09-.17-1.6-2.57-.22-.35-1.77-2.45-1.35-1.86-1.96-2.29-.58-.68-2.15-2.11-1.75-1.71-2.32-1.9-.3-.24-2.46-1.73-2.57-1.52-1.17-.69-2.7-1.27-1.22-.57-2.7-1.01-2.86-.81-.36-.1-2.92-.54-.32-.06s-5.05-.68-8-.39l-2.95,.29-.54,.05-2.9,.65-.75,.17-2.77,1.08-.5,.2"/>
        <path class="cls-2" d="M218.16,78.6l1.22,.47,2.7,1.26,2.7,1.26,.51,.24,2.59,1.49,.6,.35,2.48,1.67,1.24,.84,2.35,1.86,1.04,.82,2.22,2.02,.31,.28,2.09,2.16,.26,.27,1.96,2.3,.23,.27,1.74,2.47,1.74,2.47,.34,.49,1.52,2.62,.4,.69,1.38,2.7,.38,.74,1.21,2.79,1.13,2.6,2.88,.73,2.88,.73,2.88,.73,2.88,.73,2.88,.73,2.88,.73,2.88,.73,2.88,.73,2.88,.73,.28,.07,2.58-1.5,1.94-1.13,2.58-1.51,2.58-1.51,2.58-1.51,1.74-1.03-.92-2.9-.51-1.62-1.07-2.85-.81-2.15-1.22-2.78-.67-1.53-1.36-2.71-.83-1.64-1.49-2.64-.34-.59-1.64-2.54-1.63-2.53-1.82-2.41-1.15-1.53-2.02-2.24-2.02-2.23-1.27-1.4-2.19-2.06-1.23-1.15"/>
        <path class="cls-2" d="M243.32,226.16l-1.84,.36-2.95,.35-.2,.02-2.97,.1h-.4s-2.96-.22-2.96-.22l-1.97-.15-2.92-.55-.36-.07-2.85-.84-2.04-.6-2.73-1.19-.62-.27-2.56-1.54-.38-.23-2.23-1.8-1.44-1.41-1.88-2.36-.1-.13-1.47-2.42-2.14-2.12-.7-.69-1.99-2.27-.38-.43-1.85-2.39-.37-.48-1.7-2.5-.36-.54-1.56-2.6-.37-.61-1.41-2.69-.37-.7-1.27-2.76-.37-.8-1.11-2.83-1.09-2.79-.95-2.89-.35-1.05-.83-2.93-.33-1.17-.72-2.96-.31-1.3-.58-2.99-.58-3-.14-.71-.45-3.02-.24-1.62-.32-3.04-.32-3.04-.12-1.12-.2-3.05-.13-1.92-.1-2.9"/>
        <path class="cls-2" d="M81.34,72.45l-2.38,1.82-.83,.63-2.31,1.92-1.82,1.52-2.22,2.03-.67,.61-2.14,2.11-.62,.61-2.06,2.2-.58,.62-1.94,2.31-1.94,2.31-.35,.42-1.82,2.42-.51,.67-1.72,2.49-.47,.69-1.61,2.57-.96,1.54-1.49,2.64-.39,.7-1.39,2.7-.37,.72-1.29,2.75-.35,.75-1.18,2.8-.33,.78-1.02,2.87-1.02,2.87-.31,.86-.85,2.93-.26,.88-.73,2.96-.22,.92-.59,2.99-.34,1.73-.46,3.02-.15,.99-.34,3.03-.12,1.04-.23,3.04-.08,1.09-.12,3.05-.05,1.14v3.05s-.02,1.2-.02,1.2l.09,3.05,.04,1.27,.19,3.05,.08,1.33,.28,3.04,.05,.57,.36,3.03,.14,1.19,.46,3.02,.17,1.1,.55,3,.19,1.02,.65,2.98,.21,.95,.76,2.95,.22,.88,.86,2.92,.24,.81,.97,2.89,.39,1.15,1.13,2.83,1.13,2.83,.38,.97,1.27,2.76,.28,.61,1.38,2.7,.29,.58,1.48,2.65,.3,.54,1.57,2.59,.51,.84,1.67,2.52,.31,.47,1.77,2.45,.32,.45,1.86,2.38,.33,.42,1.94,2.31,.07,.09,2.02,2.24,.63,.7,2.11,2.15,.07,.07,2.18,2.07,.7,.67,2.26,1.98,.08,.07,2.32,1.9,.8,.65,2.39,1.81,.48,.36,2.45,1.72,.1,.07,2.5,1.65,.53,.35,2.55,1.56,1.05,.64,2.61,1.46,.11,.06,2.62,1.43,2.62,1.43,2.62,1.43,2.62,1.43,2.62,1.43,2.62,1.43,2.62,1.43,2.62,1.43,2.62,1.43,2.62,1.43,2.62,1.43,2.62,1.43,2.62,1.43,2.62,1.43,2.62,1.43,2.62,1.43,2.62,1.43,2.62,1.43,2.62,1.43,2.62,1.43,2.62,1.43,2.62,1.43,2.62,1.43,2.62,1.43,2.62,1.43,2.62,1.43,2.62,1.43,2.62,1.43,2.62,1.43,2.62,1.43,3.09,1.69,2.61-1.45,2.61-1.45,2.61-1.45,2.61-1.45,2.61-1.45,2.61-1.45,2.61-1.45,2.61-1.45,2.61-1.45,2.61-1.45,2.61-1.45,2.61-1.45,2.61-1.45,2.61-1.45,2.61-1.45,2.61-1.45,2.61-1.45,2.61-1.45,2.61-1.45,2.61-1.45,2.61-1.45,2.61-1.45,2.61-1.45,2.61-1.45,2.61-1.45,2.61-1.45,2.61-1.45,2.61-1.45,2.61-1.45,2.61-1.45,2.61-1.45,2.61-1.45,3.1-1.72,2.58-1.51,.18-.1,2.45-1.52,2.5-1.64,.32-.21,2.46-1.71,.05-.04,2.43-1.79,2.1-2.16,1.9-1.95,1.85-2.39,.51-.66,1.67-2.53,.54-.81,1.44-2.67,1.44-2.67,.1-.19,1.23-2.78,.53-1.19,1.07-2.85,.5-1.34,.91-2.91,.47-1.5,.72-2.96,.72-2.96,.27-1.1-2.84-.88-2.84-.88-2.84-.88-2.84-.88-2.84-.88-2.84-.88-2.84-.88-2.84-.88-.86-.27-2.74,1.17-2.74,1.17-2.74,1.17-2.74,1.17-2.74,1.17-.3,.13-.7,2.97-.45,1.92-.83,2.93-.04,.15-.94,2.89v.04s-1.05,2.79-1.05,2.79l-1.26,2.77-1.08,2.37-1.65,2.54-1.65,2.54-.19,.29-1.95,2.14-.46,.5-2.4,1.79-.23,.17-2.49,1.52-2.61,1.45-.58,.32-2.68,1.31-1.37,.67"/>
        <path class="cls-2" d="M204.4,273.36l-.89-.52-.77-.71-.66-.9-1.13-2.29-.88-2.92-.54-2.32-.49-3.01-.33-2.06-.38-3.03-.17-1.41-.3-3.04-.3-3.04-.12-1.23-2.74-1.17-2.74-1.17-2.74-1.17-2.74-1.17-2.74-1.17-2.74-1.17-2.74-1.17-2.74-1.17-2.74-1.17-.49-.21-2.84,.88-2.84,.88-2.84,.88-2.84,.88-2.84,.88-2.84,.88-2.84,.88-2.84,.88-2.84,.88-.52,.16,.26,3.04,.06,.76,.26,3.04,.04,.52,.26,3.04,.02,.28,.25,3.04v.05s.24,2.85,.24,2.85l.21,2.62,.15,2.36,.07,2.07-.02,1.8-.12,1.53-.22,1.27-.7,1.63-1.12,.78-1.44,.08-1.22-.22-1.4-.45-1.48-.57-2.11-.98-2.23-1.1-2.23-1.15-2.63-1.41-.47-.25-2.62-1.43-.48-.26-2.62-1.44-1.03-.57-2.34-1.31-2.59-1.5-2.59-1.5-.07-.04-2.57-1.53-1.16-.69-2.53-1.6-2.53-1.6-1.19-.75-2.47-1.69-1.58-1.08-2.42-1.77-1.59-1.16-2.36-1.85-1.6-1.26-2.28-1.95-1.59-1.36-2.2-2.05-.89-.83-2.13-2.13-.36-.36-2.01-2.25-2.01-2.24-1.25-1.4-1.83-2.4-1.83-2.4-1.21-1.59-1.63-2.55-1.63-2.55-1.15-1.81-1.45-2.67-1.22-2.25-1.27-2.76-1.27-2.76-.48-1.03-1.12-2.83-.48-1.22-1.01-2.87-.22-.62-.88-2.92-.64-2.13-.72-2.96-.72-2.96-.24-.99-.57-3-.22-1.17-.47-3.02-.19-1.24-.36-3.03-.16-1.32-.26-3.04-.12-1.4-.17-3.05-.07-1.36-.03-3.05-.03-3.05v-.5s.12-3.05,.12-3.05l.12-3.05v-.35s.29-3.04,.29-3.04l.15-1.66,.41-3.02,.22-1.65,.54-3,.13-.72,.68-2.97,.53-2.32,.85-2.92,.84-2.87,1.03-2.86,.71-1.99,1.17-2.8,.24-.57,1.3-2.74,.67-1.41,1.43-2.68,.43-.81,1.56-2.6,.65-1.09,1.72-2.49,1.72-2.49,.39-.57,1.89-2.35,1.48-1.84,2.04-2.22,1.17-1.28,2.16-2.09,1.01-.98,2.26-1.97,.71-.62,2.38-1.83,1.84-1.42,2.49-1.66,1.52-1.02,2.59-1.49,1.72-.99,2.7-1.26,2.7-1.26,.48-.23,2.81-1.05,2.85-.84,1.4-.41,2.92-.56,1.29-.25"/>
        <path class="cls-2" d="M170.53,150.77l.17-3.05,.17-3.05,.05-.91,.2-3.05,.14-2.22,.2-3.05v-.16s.14-1.95,.14-1.95l.22-3.05,.14-1.98,.22-3.04,.14-1.86,.24-3.04,.13-1.73,.26-3.04,.13-1.59,.27-3.04,.13-1.45,.29-3.04,.12-1.31,.09-.97,.29-3.04,.02-.2,.3-3.04,.06-.6,.28-3.04,.12-1.29,.29-3.04,.07-.72,.3-3.04,.06-.56,.29-3.04,.04-.4,.3-3.04,.02-.24"/>
        <path class="cls-2" d="M158.23,181.22l.76,2.95,.29,1.14,.76,2.95,.76,2.95,.76,2.95,.76,2.95,.76,2.95,.35,1.37-1.17,2.81-.12,.3-1.32,2.73-.11,.23-1.49,2.64-.1,.18-1.68,2.51-.22,.33-1.83,2.35-2.05,2.21-.13,.14-2.2,2.05-.16,.15-2.31,1.83-1.62,1.17-2.54,1.57-.35,.22-2.65,1.36-.48,.25-2.74,1.16-.64,.27-1.96,.69-1.98,.58-2.01,.48-2.94,.37-2.94,.37-.25,.03-2.97-.02h-1.18s-2.41-.23-2.41-.23l-2.92-.54-1.82-.34"/>
        <path class="cls-2" d="M204.4,273.36l1.51,.37,1.6-.07,1.86-.44,2.18-.8,2.2-.98,1.72-.85,2.65-1.37,.43-.22,1.69-.9,1.79-.97,1.88-1.04,2.6-1.46,.9-.5,2.59-1.48,.96-.55,2.58-1.5,1.03-.59,2.58-1.52,1.05-.62,2.55-1.56,1.19-.73,2.54-1.58,.17-.11,2.51-1.62,.38-.25,2.15-1.41,2.47-1.69,1.01-.69,2.42-1.77,2.42-1.77,.74-.55,2.32-1.81,2.31-1.91,.84-.7,2.25-1.98,.59-.52"/>
        <path class="cls-2" d="M125.63,236.03l-2.51-1.24-2.59-1.48-2.59-1.48-1.05-.6-2.47-1.7-.32-.22-1.74-1.2-2.36-1.85-.51-.4-2.26-1.98-1.12-.98-2.14-2.11-.37-.36-1.99-2.26-1.99-2.26-.77-.88-1.78-2.44-1.39-1.9-1.58-2.58-1.58-2.58-.05-.08-1.38-2.7-1.12-2.19-1.2-2.79-.74-1.72-1.02-2.87-1.02-2.87-.1-.29-.83-2.93-.75-2.66-.65-2.98-.62-2.83-.45-3.02-.45-3.02-.35-2.39-.25-3.04-.25-3.04-.02-.27-.12-3.05-.03-.88,.02-3.05,.02-3.05v-.23s.18-3.05,.18-3.05l.14-2.4,.37-3.03,.37-3.03,.09-.73,.6-2.99,.6-2.99,.41-2.03,.8-2.94,.19-.68,.95-2.89,.62-1.88,1.1-2.84,.25-.65,1.26-2.76,1.12-2.45,1.45-2.67,.83-1.52,1.59-2.58,.37-.6,1.74-2.48,.96-1.37,1.87-2.37,.46-.58,2-2.25,1.12-1.26,2.16-2.1,1.93-1.87,2.29-1.95,.66-.56,2.39-1.81,1.45-1.09,2.49-1.67,.87-.58,2.57-1.53,1.63-.97,2.64-1.4,.05-.03,2.68-1.31,.09-.05,2.72-1.22,.13-.06,2.76-1.13,.18-.07,2.55-.95"/>
        <path class="cls-2" d="M175.17,293.49l-.13-.23-.09-.28-.1-.4-.12-.6"/>
        <path class="cls-2" d="M173.74,283.9l-.2-2.11-.22-2.28-.22-2.53-.24-2.96-.25-3.04-.25-3.04-.08-.94-.27-3.04-.15-1.67-.12-1.39-.26-3.04-.15-1.8"/>
        <path class="cls-2" d="M174.44,290.11l-.15-1.33-.17-1.35-.18-1.66-.19-1.87,.33,3.04,.05,.49"/>
        <path class="cls-2" d="M177.75,66.44l.2-1.97,.17-1.81-.29,3.04-.07,.74-.22,2.07-.23,2.17-.05,.42v.03s0,0,0,0l-.2,1.82-.31,2.85-.31,3.04v.08"/>
        <path class="cls-2" d="M144.66,139.54l-2.91,.6-2.91,.6-2.91,.6-2.91,.6-2.91,.6-2.91,.6-2.91,.6-2.91,.6-1.77,.36,.1,3.05,.09,2.94,.15,3.05,.03,.66,.19,3.05,.04,.6,.24,3.04,.04,.53,.29,3.04,.06,.61,2.84,.87,2.84,.87,2.84,.87,2.84,.87,2.84,.87,1.95,.6,2.88-.74,2.88-.74,2.88-.74,2.88-.74,2.88-.74,2.88-.74,1.05-.27,2.88-.74,2.88-.74,2.88-.74,2.88-.74,2.88-.74,.24-.06,.75-.19"/>
        <path class="cls-2" d="M137.02,170.24l-.3-3.04-.22-2.16-.22-3.04-.18-2.51-.14-3.05-.12-2.66-.07-3.05-.04-1.89"/>
        <path class="cls-2" d="M144.47,146.91l-2.9,.64-2.9,.64-2.94,.65-2.88-.74-2.88-.74-2.88-.74-2.88-.74-2.88-.74-1.72-.44"/>
        <path class="cls-2" d="M279.53,205.14l-.58,2.99-.39,2.02-.73,2.96-.45,1.82-.88,2.92-.49,1.63-1.08,2.84-1.08,2.84-.27,.7-1.28,2.75-.57,1.21-1.45,2.66-.58,1.06-1.76,2.46-.86,1.2"/>
        <path class="cls-2" d="M184.56,207.22l-2.87-.78-2.87-.78-2.87-.78-2.87-.78-2.87-.78-2.87-.78-2.87-.78-1.07-.29"/>
        <path class="cls-2" d="M183.92,213.38l.21-2.03,.21-2.05,.21-2.07-1.49-2.64-.4-.71-1.36-2.72-1.31-2.62-1.19-2.8-.41-.97-1.03-2.86-1.03-2.86-.08-.21-.89-2.91-.38-1.24-.77-2.95-.36-1.37-.66-2.98-.34-1.51-.56-3-.31-1.66-.46-3.02-.27-1.77-.36-3.03-.22-1.88"/>
        <path class="cls-2" d="M125.63,236.03l2.57,1.17"/>
        <path class="cls-2" d="M174.58,291.14l-.14-1.04,.28,1.88-.14-.84"/>
        <path class="cls-2" d="M155.33,165.5l.12,.91,.45,3.02v.05s.51,3.01,.51,3.01l.56,2.96,.61,2.91,.65,2.86,.69,2.8,.36,1.29"/>
        <path class="cls-2" d="M197.43,246.88l-2.81,.99-2.81,.99-2.81,.99-2.81,.99-2.81,.99-2.81,.99-2.81,.99-2.81,.99-2.81,.99-.84,.3-2.7-1.27-2.7-1.27-2.7-1.27-2.7-1.27-2.7-1.27-2.7-1.27-2.7-1.27-2.7-1.27-2.7-1.27-.85-.4"/>
        <path class="cls-2" d="M144.38,150.89h2.97s2.97-.03,2.97-.03h2.97s2.97-.03,2.97-.03h2.97s2.97-.03,2.97-.03h2.97s2.97-.03,2.97-.03h2.42"/>
        <path class="cls-2" d="M116.19,75.46l2.96-.21,1.67-.12"/>
        <path class="cls-2" d="M218.79,78.22l-.64,.38-2.28,1.37-.31,.27-2.27,1.97-.34,.41-1.92,2.32-1.54,2.46-.11,.21-1.41,2.69-.07,.17-1.21,2.79-.06,.17-1.06,2.85-.39,1.23-.93,2.9-.51,1.97-.77,2.95-.15,.7-.64,2.98-.28,1.47-.57,3-.45,2.91-.47,3.02-.08,.6-.39,3.03-.39,3.03-.11,1.06-.33,3.03-.33,3.03-.28,2.99-.29,3.04-.15,1.91-.24,3.04-1.5,.36-2.89,.7-2.89,.7-2.89,.7-2.89,.7-2.66,.64-2.89,.7-2.89,.7-2.89,.7-2.89,.7h-1.65s-1.63,.02-1.63,.02l-2.97,.02-2.97,.02-2.97,.02-2.97,.02h-2.09s-2.97,.02-2.97,.02h-2.97s-2.97,.02-2.97,.02l.02-.93,.07-3.05,.03-1.49,.06-2.29,.08-3.05,.02-.54,.05-1.6,.09-3.05,.06-1.98,.09-3.05,.05-1.82,.08-3.05,.04-1.66,.08-3.05,.02-1.46,.05-3.05v-1.24s0-3.05,0-3.05l-.02-1.02-.07-3.05-.04-.8-.14-3.05-.05-.58-.24-3.04-.04-.36-.35-3.03-.02-.14-.5-3.01-.67-2.9-.84-2.65-.95-2.21-1.28-2.34-1.42-1.9-1.65-1.65-1.75-1.25-.43-.23-2.02-1.06-2.55-.89-2.86-.65-.49-.06-2.67-.34-3.95-.1-2.96,.26-1.12,.1"/>
        <path class="cls-2" d="M255.13,199.83l2.9,.63,2.9,.63,2.9,.63,2.9,.63,2.9,.63,2.9,.63,2.9,.63,2.9,.63,1.18,.26,2.85-.86,2.85-.86,2.85-.86,2.85-.86,1.82-.55"/>
      </g>
    </g>
  </g>
</svg>